<?xml version="1.0" encoding="utf-8"?><svg viewBox="0 0 30 27" xmlns="http://www.w3.org/2000/svg" xmlns:xlink="http://www.w3.org/1999/xlink"><style>:root>svg{display:none}:root>svg:target{display:block}</style><svg viewBox="0 0 27 27" id="inst" xmlns="http://www.w3.org/2000/svg"><path d="M8.379 9.004c1.328-1.328 2.93-1.992 4.805-1.992 1.875 0 3.457.664 4.746 1.992 1.328 1.289 1.992 2.871 1.992 4.746 0 1.875-.664 3.477-1.992 4.805-1.29 1.289-2.871 1.933-4.746 1.933-1.875 0-3.477-.644-4.805-1.933-1.29-1.328-1.934-2.93-1.934-4.805 0-1.875.645-3.457 1.934-4.746zm1.7 7.851c.858.86 1.894 1.29 3.105 1.29 1.21 0 2.246-.43 3.105-1.29.86-.859 1.29-1.894 1.29-3.105 0-1.21-.43-2.246-1.29-3.105-.86-.86-1.895-1.29-3.105-1.29-1.211 0-2.246.43-3.106 1.29-.86.859-1.289 1.894-1.289 3.105 0 1.21.43 2.246 1.29 3.105zm11.19-11.19c.313.272.47.624.47 1.054 0 .43-.157.8-.47 1.113a1.337 1.337 0 01-1.054.469c-.43 0-.8-.156-1.113-.469a1.52 1.52 0 01-.47-1.113c0-.43.157-.782.47-1.055a1.52 1.52 0 011.113-.469c.43 0 .781.157 1.055.47zm4.981 2.694c.04 1.055.059 2.852.059 5.391 0 2.54-.02 4.336-.059 5.39-.117 2.383-.84 4.239-2.168 5.567-1.289 1.29-3.125 1.973-5.508 2.05-1.055.079-2.851.118-5.39.118-2.54 0-4.336-.04-5.391-.117-2.383-.117-4.219-.82-5.508-2.11a5.654 5.654 0 01-1.23-1.64 9.622 9.622 0 01-.703-1.817c-.118-.585-.176-1.27-.176-2.05-.078-1.055-.117-2.852-.117-5.391 0-2.54.039-4.355.117-5.45.117-2.343.82-4.16 2.11-5.448C3.573 1.523 5.41.8 7.792.684c1.055-.04 2.852-.059 5.39-.059 2.54 0 4.337.02 5.391.059 2.383.117 4.219.84 5.508 2.168 1.328 1.289 2.05 3.125 2.168 5.507zm-2.813 13.125c.118-.312.215-.703.293-1.172.079-.507.137-1.093.176-1.757.04-.703.059-1.27.059-1.7V15.04 13.75v-1.29-1.816c0-.43-.02-.976-.059-1.64a16.573 16.573 0 00-.175-1.758c-.079-.508-.176-.918-.294-1.23-.468-1.211-1.308-2.051-2.519-2.52-.313-.117-.723-.215-1.23-.293a16.583 16.583 0 00-1.758-.176c-.664-.039-1.211-.058-1.64-.058H10.077c-.43 0-.996.02-1.7.058-.663.04-1.25.098-1.757.176-.469.078-.86.176-1.172.293-1.21.469-2.05 1.309-2.52 2.52-.116.312-.214.722-.292 1.23a16.579 16.579 0 00-.176 1.758c-.04.664-.059 1.21-.059 1.64V17.677c.04.586.078 1.094.118 1.523a15.536 15.536 0 00.41 2.285c.507 1.211 1.347 2.051 2.52 2.52.312.117.702.215 1.171.293a19.07 19.07 0 001.758.176c.703.039 1.25.058 1.64.058h6.27c.43 0 .977-.02 1.64-.058.704-.04 1.29-.098 1.759-.176.507-.078.918-.176 1.23-.293 1.21-.508 2.05-1.348 2.52-2.52z"/></svg><svg viewBox="0 0 27 27" id="linkedIn" xmlns="http://www.w3.org/2000/svg"><path d="M24.375.625c.508 0 .938.195 1.29.586.39.351.585.781.585 1.289V25c0 .508-.195.938-.586 1.29-.352.39-.781.585-1.289.585h-22.5c-.508 0-.957-.195-1.348-.586A1.754 1.754 0 010 25V2.5c0-.508.176-.938.527-1.29.391-.39.84-.585 1.348-.585h22.5zM7.91 23.125h.059v-12.54H4.043v12.54H7.91zM4.395 8.242c.43.43.957.645 1.582.645a2.15 2.15 0 001.582-.645c.468-.469.703-.996.703-1.582 0-.625-.235-1.152-.703-1.582a2.063 2.063 0 00-1.582-.703c-.625 0-1.153.234-1.582.703A2.15 2.15 0 003.75 6.66c0 .586.215 1.113.645 1.582zM22.5 23.125V16.27c0-.938-.059-1.739-.176-2.403a5.587 5.587 0 00-.644-1.816c-.313-.586-.801-1.016-1.465-1.29-.625-.312-1.406-.468-2.344-.468-.898 0-1.68.195-2.344.586-.625.39-1.074.86-1.347 1.406h-.059v-1.7h-3.75v12.54h3.926v-6.21c0-.977.156-1.759.469-2.345.312-.586.918-.879 1.816-.879.469 0 .86.098 1.172.293.312.196.508.489.586.88.117.39.195.741.234 1.054.04.273.059.645.059 1.113v6.094H22.5z"/></svg><svg viewBox="0 0 30 25" id="twiiter" xmlns="http://www.w3.org/2000/svg"><path d="M26.895 6.656c.039.157.058.41.058.762 0 2.07-.39 4.14-1.172 6.21a19.66 19.66 0 01-3.34 5.626c-1.406 1.68-3.242 3.047-5.507 4.101-2.266 1.055-4.766 1.582-7.5 1.582-3.438 0-6.582-.918-9.434-2.753.43.039.918.058 1.465.058 2.851 0 5.41-.879 7.676-2.637-1.368 0-2.579-.39-3.633-1.171-1.016-.82-1.719-1.836-2.11-3.047.391.039.762.058 1.114.058a7.81 7.81 0 001.64-.175 5.978 5.978 0 01-2.52-1.172 6.516 6.516 0 01-1.757-2.11 6.074 6.074 0 01-.645-2.754v-.117c.86.508 1.778.781 2.754.82C2.148 8.688 1.23 6.97 1.23 4.782c0-1.093.293-2.129.88-3.105a17.058 17.058 0 005.566 4.57 17.241 17.241 0 007.09 1.875 8.543 8.543 0 01-.118-1.406c0-1.68.586-3.125 1.758-4.336C17.617 1.168 19.063.562 20.742.562c1.797 0 3.301.645 4.512 1.934a12.516 12.516 0 003.926-1.465c-.47 1.446-1.367 2.578-2.696 3.399A13.217 13.217 0 0030 3.434a13.524 13.524 0 01-3.105 3.222z"/></svg></svg>